# xmcd
# Copyright (C) 1995-1998 Ti Kan
#
# Track frame offsets:
#       150
#       15493
#       29725
#       49671
#       71266
#       84527
#       99146
#       116666
#       133548
#       155202
#       179844
#       212240
#
# Disc length: 3105 seconds
#
# Revision: 0
# Processed by: cddbd v1.5.2PL0 Copyright (c) Steve Scherf et al.
# Submitted via: CD-Import v1.0
#
DISCID=a50c1f0c
DTITLE=Wild Turkey - Red Light
DYEAR=09
DGENRE=
TTITLE0=Red Light
TTITLE1=Motor
TTITLE2=Tonight
TTITLE3=Lazy Daisy
TTITLE4=Heaven 2.9
TTITLE5=Misery Loves Co.
TTITLE6=Counting Flies
TTITLE7=She's Mine
TTITLE8=Another Night In L.a.
TTITLE9=Kiss Me Goodbye
TTITLE10=Love Is The Key
TTITLE11=Data Track
EXTD=
EXTT0=
EXTT1=
EXTT2=
EXTT3=
EXTT4=
EXTT5=
EXTT6=
EXTT7=
EXTT8=
EXTT9=
EXTT10=
EXTT11=
PLAYORDER=
